<?xml version="1.0" encoding="UTF-8" standalone="no"?>
<!-- Generator: Adobe Illustrator 23.0.5, SVG Export Plug-In . SVG Version: 6.00 Build 0)  -->

<svg
   version="1.1"
   id="Capa_1"
   x="0px"
   y="0px"
   viewBox="0 0 399.99999 347.23"
   xml:space="preserve"
   sodipodi:docname="Seprok Imagotipo.svg"
   inkscape:export-filename="/home/aleoponcelet/bitmap.png"
   inkscape:export-xdpi="153.70224"
   inkscape:export-ydpi="153.70224"
   width="400"
   height="347.23001"
   inkscape:version="1.1.1 (3bf5ae0d25, 2021-09-20)"
   xmlns:inkscape="http://www.inkscape.org/namespaces/inkscape"
   xmlns:sodipodi="http://sodipodi.sourceforge.net/DTD/sodipodi-0.dtd"
   xmlns="http://www.w3.org/2000/svg"
   xmlns:svg="http://www.w3.org/2000/svg"><defs
   id="defs22" /><sodipodi:namedview
   id="namedview20"
   pagecolor="#ffffff"
   bordercolor="#666666"
   borderopacity="1.0"
   inkscape:pageshadow="2"
   inkscape:pageopacity="0.0"
   inkscape:pagecheckerboard="0"
   showgrid="false"
   inkscape:zoom="1.3037247"
   inkscape:cx="85.524191"
   inkscape:cy="173.34948"
   inkscape:window-width="2160"
   inkscape:window-height="1371"
   inkscape:window-x="0"
   inkscape:window-y="0"
   inkscape:window-maximized="1"
   inkscape:current-layer="Capa_1" />
<style
   type="text/css"
   id="style9">
	.st0{fill:#ffffff;}
</style>



<g
   id="g108"
   transform="translate(-414.01389,-3.1905949)"><path
     class="st0"
     d="m 625.78,124.89 v 180.77 c 0,0 113.02,-35.74 113.02,-109.62 0,0 2.38,-31.66 -20.09,-43.91 0,0 30.3,66.38 -60.94,108.94 V 144.64 Z"
     id="path11" /><path
     class="st0"
     d="m 669.01,139.87 v 18.51 c 0,0 30.3,6.34 42.21,32.55 0,0.01 1.02,-44.59 -42.21,-51.06 z"
     id="path13" /><path
     class="st0"
     d="m 591.6,143.96 v 166.81 c 0,0 -106.42,9.53 -102.33,-75.23 0,0 16,50.04 81.02,50.04 l -0.68,-243.06 56.17,31.66 v 50.72 z"
     id="path15" /><path
     class="st0"
     d="m 535.09,199.09 v -24.58 c -21.14,18.17 -45.57,49.33 -16.21,81.11 0,0 -13.74,-28.31 16.21,-56.53 z"
     id="path17" /></g>
</svg>
